<?xml version="1.0" encoding="UTF-8"?>

<svg version="1.2" baseProfile="tiny" width="291.04mm" height="396.88mm" viewBox="0 0 29104 39688" preserveAspectRatio="xMidYMid" fill-rule="evenodd" clip-path="url(#presentation_clip_path)" stroke-width="28.222" stroke-linejoin="round" xmlns="http://www.w3.org/2000/svg" xmlns:ooo="http://xml.openoffice.org/svg/export" xmlns:xlink="http://www.w3.org/1999/xlink" xml:space="preserve">
 <defs class="ClipPathGroup">
  <clipPath id="presentation_clip_path" clipPathUnits="userSpaceOnUse">
   <rect x="0" y="0" width="29104" height="39688"/>
  </clipPath>
 </defs>
 <defs class="TextShapeIndex">
  <g ooo:slide="id1" ooo:id-list="id3 id4 id5 id6 id7 id8 id9 id10 id11 id12 id13"/>
 </defs>
 <defs class="EmbeddedBulletChars">
  <g id="bullet-char-template(57356)" transform="scale(0.00048828125,-0.00048828125)">
   <path d="M 580,1141 L 1163,571 580,0 -4,571 580,1141 Z"/>
  </g>
  <g id="bullet-char-template(57354)" transform="scale(0.00048828125,-0.00048828125)">
   <path d="M 8,1128 L 1137,1128 1137,0 8,0 8,1128 Z"/>
  </g>
  <g id="bullet-char-template(10146)" transform="scale(0.00048828125,-0.00048828125)">
   <path d="M 174,0 L 602,739 174,1481 1456,739 174,0 Z M 1358,739 L 309,1346 659,739 1358,739 Z"/>
  </g>
  <g id="bullet-char-template(10132)" transform="scale(0.00048828125,-0.00048828125)">
   <path d="M 2015,739 L 1276,0 717,0 1260,543 174,543 174,936 1260,936 717,1481 1274,1481 2015,739 Z"/>
  </g>
  <g id="bullet-char-template(10007)" transform="scale(0.00048828125,-0.00048828125)">
   <path d="M 0,-2 C -7,14 -16,27 -25,37 L 356,567 C 262,823 215,952 215,954 215,979 228,992 255,992 264,992 276,990 289,987 310,991 331,999 354,1012 L 381,999 492,748 772,1049 836,1024 860,1049 C 881,1039 901,1025 922,1006 886,937 835,863 770,784 769,783 710,716 594,584 L 774,223 C 774,196 753,168 711,139 L 727,119 C 717,90 699,76 672,76 641,76 570,178 457,381 L 164,-76 C 142,-110 111,-127 72,-127 30,-127 9,-110 8,-76 1,-67 -2,-52 -2,-32 -2,-23 -1,-13 0,-2 Z"/>
  </g>
  <g id="bullet-char-template(10004)" transform="scale(0.00048828125,-0.00048828125)">
   <path d="M 285,-33 C 182,-33 111,30 74,156 52,228 41,333 41,471 41,549 55,616 82,672 116,743 169,778 240,778 293,778 328,747 346,684 L 369,508 C 377,444 397,411 428,410 L 1163,1116 C 1174,1127 1196,1133 1229,1133 1271,1133 1292,1118 1292,1087 L 1292,965 C 1292,929 1282,901 1262,881 L 442,47 C 390,-6 338,-33 285,-33 Z"/>
  </g>
  <g id="bullet-char-template(9679)" transform="scale(0.00048828125,-0.00048828125)">
   <path d="M 813,0 C 632,0 489,54 383,161 276,268 223,411 223,592 223,773 276,916 383,1023 489,1130 632,1184 813,1184 992,1184 1136,1130 1245,1023 1353,916 1407,772 1407,592 1407,412 1353,268 1245,161 1136,54 992,0 813,0 Z"/>
  </g>
  <g id="bullet-char-template(8226)" transform="scale(0.00048828125,-0.00048828125)">
   <path d="M 346,457 C 273,457 209,483 155,535 101,586 74,649 74,723 74,796 101,859 155,911 209,963 273,989 346,989 419,989 480,963 531,910 582,859 608,796 608,723 608,648 583,586 532,535 482,483 420,457 346,457 Z"/>
  </g>
  <g id="bullet-char-template(8211)" transform="scale(0.00048828125,-0.00048828125)">
   <path d="M -4,459 L 1135,459 1135,606 -4,606 -4,459 Z"/>
  </g>
 </defs>
 <defs class="TextEmbeddedBitmaps"/>
 <g>
  <g id="id2" class="Master_Slide">
   <g id="bg-id2" class="Background"/>
   <g id="bo-id2" class="BackgroundObjects"/>
  </g>
 </g>
 <g class="SlideGroup">
  <g>
   <g id="id1" class="Slide" clip-path="url(#presentation_clip_path)">
    <g class="Page">
     <g class="com.sun.star.drawing.ClosedBezierShape">
      <g id="id3">
       <path fill="rgb(0,0,0)" stroke="none" d="M 15659,4740 L 20363,4740 C 21016,4740 21547,4161 21547,3446 L 21547,-463 C 21547,-1178 21016,-1758 20363,-1758 L 10957,-1758 C 10304,-1758 9773,-1178 9773,-463 L 9773,3446 C 9773,4161 10304,4740 10957,4740 L 15659,4740 Z"/>
       <path fill="none" stroke="rgb(0,0,0)" stroke-width="17" stroke-linejoin="round" d="M 15659,4740 L 20363,4740 C 21016,4740 21547,4161 21547,3446 L 21547,-463 C 21547,-1178 21016,-1758 20363,-1758 L 10957,-1758 C 10304,-1758 9773,-1178 9773,-463 L 9773,3446 C 9773,4161 10304,4740 10957,4740 L 15659,4740 Z"/>
      </g>
     </g>
     <g class="com.sun.star.drawing.ClosedBezierShape">
      <g id="id4">
       <path fill="rgb(0,0,0)" stroke="none" d="M 5501,30400 L 7691,30400 C 8249,30400 8703,29870 8703,29217 L 8703,25646 C 8703,24994 8249,24464 7691,24464 L 3311,24464 C 2752,24464 2300,24994 2300,25646 L 2300,29217 C 2300,29870 2752,30400 3311,30400 L 5501,30400 Z"/>
       <path fill="none" stroke="rgb(0,0,0)" stroke-width="20" stroke-linejoin="round" d="M 5501,30400 L 7691,30400 C 8249,30400 8703,29870 8703,29217 L 8703,25646 C 8703,24994 8249,24464 7691,24464 L 3311,24464 C 2752,24464 2300,24994 2300,25646 L 2300,29217 C 2300,29870 2752,30400 3311,30400 L 5501,30400 Z"/>
      </g>
     </g>
     <g class="com.sun.star.drawing.ClosedBezierShape">
      <g id="id5">
       <path fill="rgb(0,0,0)" stroke="none" d="M 18189,30300 L 20507,30300 C 21098,30300 21577,29779 21577,29136 L 21577,25625 C 21577,24983 21098,24462 20507,24462 L 15871,24462 C 15280,24462 14800,24983 14800,25625 L 14800,29136 C 14800,29779 15280,30300 15871,30300 L 18189,30300 Z"/>
       <path fill="none" stroke="rgb(0,0,0)" stroke-width="20" stroke-linejoin="round" d="M 18189,30300 L 20507,30300 C 21098,30300 21577,29779 21577,29136 L 21577,25625 C 21577,24983 21098,24462 20507,24462 L 15871,24462 C 15280,24462 14800,24983 14800,25625 L 14800,29136 C 14800,29779 15280,30300 15871,30300 L 18189,30300 Z"/>
      </g>
     </g>
     <g class="com.sun.star.drawing.ClosedBezierShape">
      <g id="id6">
       <path fill="rgb(217,199,135)" stroke="none" d="M 15507,4573 L 20099,4573 C 20814,4573 21394,3994 21394,3279 L 21394,-631 C 21394,-1346 20814,-1925 20099,-1925 L 10915,-1925 C 10200,-1925 9620,-1346 9620,-631 L 9620,3279 C 9620,3994 10200,4573 10915,4573 L 15507,4573 Z"/>
       <path fill="none" stroke="rgb(0,0,0)" stroke-width="19" stroke-linejoin="round" d="M 15507,4573 L 20099,4573 C 20814,4573 21394,3994 21394,3279 L 21394,-631 C 21394,-1346 20814,-1925 20099,-1925 L 10915,-1925 C 10200,-1925 9620,-1346 9620,-631 L 9620,3279 C 9620,3994 10200,4573 10915,4573 L 15507,4573 Z"/>
      </g>
     </g>
     <g class="com.sun.star.drawing.ClosedBezierShape">
      <g id="id7">
       <path fill="rgb(0,0,0)" stroke="none" d="M 4679,9699 L 5601,9699 C 5964,9699 6258,8941 6258,8004 L 6258,5496 C 6258,4560 5964,3801 5601,3801 L 3757,3801 C 3394,3801 3100,4560 3100,5496 L 3100,8004 C 3100,8941 3394,9699 3757,9699 L 4679,9699 Z"/>
       <path fill="none" stroke="rgb(0,0,0)" stroke-width="19" stroke-linejoin="round" d="M 4679,9699 L 5601,9699 C 5964,9699 6258,8941 6258,8004 L 6258,5496 C 6258,4560 5964,3801 5601,3801 L 3757,3801 C 3394,3801 3100,4560 3100,5496 L 3100,8004 C 3100,8941 3394,9699 3757,9699 L 4679,9699 Z"/>
      </g>
     </g>
     <g class="com.sun.star.drawing.ClosedBezierShape">
      <g id="id8">
       <path fill="rgb(217,199,135)" stroke="none" d="M 4523,9600 L 5471,9600 C 5844,9600 6147,8841 6147,7905 L 6147,5396 C 6147,4459 5844,3700 5471,3700 L 3576,3700 C 3202,3700 2900,4459 2900,5396 L 2900,7905 C 2900,8841 3202,9600 3576,9600 L 4523,9600 Z"/>
       <path fill="none" stroke="rgb(0,0,0)" stroke-width="19" stroke-linejoin="round" d="M 4523,9600 L 5471,9600 C 5844,9600 6147,8841 6147,7905 L 6147,5396 C 6147,4459 5844,3700 5471,3700 L 3576,3700 C 3202,3700 2900,4459 2900,5396 L 2900,7905 C 2900,8841 3202,9600 3576,9600 L 4523,9600 Z"/>
      </g>
     </g>
     <g class="com.sun.star.drawing.ClosedBezierShape">
      <g id="id9">
       <path fill="rgb(217,199,135)" stroke="none" d="M 5364,30200 L 7572,30200 C 8100,30200 8528,29673 8528,29023 L 8528,25474 C 8528,24825 8100,24298 7572,24298 L 3155,24298 C 2628,24298 2200,24825 2200,25474 L 2200,29023 C 2200,29673 2628,30200 3155,30200 L 5364,30200 Z"/>
       <path fill="none" stroke="rgb(0,0,0)" stroke-width="19" stroke-linejoin="round" d="M 5364,30200 L 7572,30200 C 8100,30200 8528,29673 8528,29023 L 8528,25474 C 8528,24825 8100,24298 7572,24298 L 3155,24298 C 2628,24298 2200,24825 2200,25474 L 2200,29023 C 2200,29673 2628,30200 3155,30200 L 5364,30200 Z"/>
      </g>
     </g>
     <g class="com.sun.star.drawing.ClosedBezierShape">
      <g id="id10">
       <path fill="rgb(44,144,135)" stroke="none" d="M 7832,24501 C 7819,24501 7807,24503 7798,24509 L 7497,24683 C 7478,24694 7478,24711 7497,24722 L 7798,24896 C 7817,24907 7847,24907 7865,24896 L 8166,24722 C 8185,24711 8185,24694 8166,24683 L 7865,24509 C 7856,24503 7843,24501 7832,24501 Z M 7830,24606 C 7847,24606 7864,24610 7878,24618 7888,24623 7894,24629 7897,24636 7899,24643 7900,24652 7897,24663 L 7894,24675 C 7892,24683 7891,24688 7893,24692 7894,24696 7897,24699 7901,24701 L 7908,24705 7843,24741 7835,24737 C 7827,24733 7822,24728 7820,24722 7817,24716 7817,24707 7821,24694 L 7824,24683 C 7825,24677 7826,24671 7824,24666 7823,24662 7820,24658 7816,24656 7809,24652 7800,24651 7791,24652 7781,24653 7771,24656 7761,24662 7750,24668 7742,24674 7734,24683 7726,24691 7719,24700 7713,24711 L 7666,24685 C 7677,24674 7687,24665 7698,24657 7707,24649 7718,24642 7729,24636 7759,24619 7786,24610 7812,24606 7818,24606 7824,24606 7830,24606 Z M 7930,24717 L 7983,24747 7917,24783 7865,24754 7930,24717 Z M 7477,24755 C 7466,24755 7458,24763 7458,24779 L 7458,25090 C 7458,25111 7473,25137 7492,25148 L 7781,25315 C 7800,25326 7815,25318 7815,25295 L 7815,24985 C 7815,24964 7800,24938 7781,24927 L 7492,24759 C 7486,24756 7482,24755 7477,24755 Z M 8187,24755 C 8182,24755 8178,24756 8172,24759 L 7883,24927 C 7865,24938 7850,24964 7850,24985 L 7850,25295 C 7850,25318 7865,25326 7883,25315 L 8172,25148 C 8191,25137 8206,25111 8206,25090 L 8206,24779 C 8206,24763 8198,24755 8187,24755 Z M 7554,24880 C 7567,24883 7578,24886 7590,24890 7600,24894 7611,24899 7620,24904 7646,24919 7666,24937 7680,24956 7694,24975 7701,24995 7701,25017 7701,25028 7698,25037 7694,25043 7690,25050 7683,25055 7673,25060 L 7663,25063 C 7655,25066 7650,25069 7649,25072 7646,25075 7645,25079 7645,25084 L 7645,25091 7587,25058 7587,25050 C 7587,25041 7589,25034 7593,25028 7596,25023 7604,25018 7615,25013 L 7625,25009 C 7631,25007 7635,25005 7638,25001 7641,24997 7642,24993 7642,24987 7642,24979 7640,24972 7635,24964 7630,24957 7623,24951 7613,24945 7605,24941 7596,24937 7586,24935 7575,24933 7565,24933 7554,24934 L 7554,24880 Z M 8085,24897 C 8088,24897 8091,24897 8093,24898 8107,24901 8114,24914 8114,24936 8114,24947 8111,24958 8107,24969 8104,24980 8096,24994 8086,25010 L 8076,25025 C 8069,25037 8064,25045 8062,25050 8059,25056 8059,25061 8059,25066 L 8059,25074 8000,25107 8000,25099 C 8000,25090 8003,25080 8006,25072 8009,25062 8017,25049 8028,25031 L 8038,25016 C 8044,25006 8049,24997 8051,24991 8055,24984 8055,24978 8055,24973 8055,24965 8053,24960 8048,24959 8043,24957 8036,24959 8027,24964 8018,24969 8009,24977 7999,24986 7988,24996 7978,25008 7967,25021 L 7967,24968 C 7981,24956 7992,24945 8003,24937 8014,24928 8024,24921 8033,24915 8055,24904 8072,24897 8085,24897 Z M 7587,25083 L 7645,25117 7645,25177 7587,25144 7587,25083 Z M 8059,25099 L 8059,25160 8000,25193 8000,25132 8059,25099 Z"/>
      </g>
     </g>
     <g class="com.sun.star.drawing.ClosedBezierShape">
      <g id="id11">
       <path fill="rgb(217,199,135)" stroke="none" d="M 18003,30100 L 20367,30100 C 20940,30100 21405,29583 21405,28943 L 21405,25452 C 21405,24813 20940,24296 20367,24296 L 15638,24296 C 15065,24296 14600,24813 14600,25452 L 14600,28943 C 14600,29583 15065,30100 15638,30100 L 18003,30100 Z"/>
       <path fill="none" stroke="rgb(0,0,0)" stroke-width="19" stroke-linejoin="round" d="M 18003,30100 L 20367,30100 C 20940,30100 21405,29583 21405,28943 L 21405,25452 C 21405,24813 20940,24296 20367,24296 L 15638,24296 C 15065,24296 14600,24813 14600,25452 L 14600,28943 C 14600,29583 15065,30100 15638,30100 L 18003,30100 Z"/>
      </g>
     </g>
     <g class="com.sun.star.drawing.ClosedBezierShape">
      <g id="id12">
       <path fill="rgb(44,144,135)" stroke="none" d="M 20684,24501 C 20672,24501 20660,24503 20650,24509 L 20350,24683 C 20331,24694 20331,24711 20350,24722 L 20650,24896 C 20669,24907 20699,24907 20718,24896 L 21018,24722 C 21037,24711 21037,24694 21018,24683 L 20718,24509 C 20709,24503 20696,24501 20684,24501 Z M 20683,24606 C 20700,24606 20717,24610 20731,24618 20740,24623 20746,24629 20750,24636 20752,24643 20753,24652 20750,24663 L 20746,24675 C 20745,24683 20744,24688 20746,24692 20746,24696 20750,24699 20754,24701 L 20761,24705 20695,24741 20687,24737 C 20679,24733 20675,24728 20672,24722 20670,24716 20670,24707 20673,24694 L 20676,24683 C 20678,24677 20679,24671 20677,24666 20676,24662 20672,24658 20668,24656 20661,24652 20653,24651 20643,24652 20634,24653 20624,24656 20613,24662 20603,24668 20594,24674 20586,24683 20579,24691 20571,24700 20565,24711 L 20519,24685 C 20530,24674 20540,24665 20550,24657 20560,24649 20571,24642 20582,24636 20612,24619 20638,24610 20664,24606 20671,24606 20676,24606 20683,24606 Z M 20783,24717 L 20836,24747 20770,24783 20717,24754 20783,24717 Z M 20329,24755 C 20318,24755 20311,24763 20311,24779 L 20311,25090 C 20311,25111 20326,25137 20344,25148 L 20634,25315 C 20653,25326 20668,25318 20668,25295 L 20668,24985 C 20668,24964 20653,24938 20634,24927 L 20344,24759 C 20339,24756 20334,24755 20329,24755 Z M 21040,24755 C 21035,24755 21030,24756 21025,24759 L 20735,24927 C 20717,24938 20702,24964 20702,24985 L 20702,25295 C 20702,25318 20717,25326 20735,25315 L 21025,25148 C 21044,25137 21059,25111 21059,25090 L 21059,24779 C 21059,24763 21051,24755 21040,24755 Z M 20407,24880 C 20419,24883 20431,24886 20442,24890 20452,24894 20463,24899 20473,24904 20499,24919 20519,24937 20533,24956 20546,24975 20553,24995 20553,25017 20553,25028 20551,25037 20547,25043 20542,25050 20535,25055 20526,25060 L 20516,25063 C 20508,25066 20503,25069 20501,25072 20499,25075 20497,25079 20497,25084 L 20497,25091 20440,25058 20440,25050 C 20440,25041 20441,25034 20445,25028 20448,25023 20456,25018 20467,25013 L 20478,25009 C 20484,25007 20488,25005 20491,25001 20493,24997 20495,24993 20495,24987 20495,24979 20493,24972 20488,24964 20482,24957 20475,24951 20466,24945 20457,24941 20448,24937 20438,24935 20428,24933 20418,24933 20407,24934 L 20407,24880 Z M 20937,24897 C 20940,24897 20944,24897 20946,24898 20959,24901 20966,24914 20966,24936 20966,24947 20964,24958 20960,24969 20956,24980 20949,24994 20939,25010 L 20929,25025 C 20921,25037 20917,25045 20914,25050 20912,25056 20911,25061 20911,25066 L 20911,25074 20853,25107 20853,25099 C 20853,25090 20855,25080 20858,25072 20862,25062 20869,25049 20880,25031 L 20891,25016 C 20897,25006 20902,24997 20904,24991 20907,24984 20908,24978 20908,24973 20908,24965 20906,24960 20901,24959 20895,24957 20888,24959 20880,24964 20871,24969 20862,24977 20851,24986 20841,24996 20831,25008 20820,25021 L 20820,24968 C 20833,24956 20845,24945 20855,24937 20866,24928 20877,24921 20886,24915 20907,24904 20925,24897 20937,24897 Z M 20440,25083 L 20497,25117 20497,25177 20440,25144 20440,25083 Z M 20911,25099 L 20911,25160 20853,25193 20853,25132 20911,25099 Z"/>
      </g>
     </g>
     <g class="com.sun.star.drawing.TextShape">
      <g id="id13"/>
     </g>
    </g>
   </g>
  </g>
 </g>
</svg>